HIERARCHY
ROOT Root
{
  OFFSET 0.0 0.0 0.0
  CHANNELS 6 Xposition Yposition Zposition Zrotation Yrotation Xrotation
  JOINT Hips
  {
    OFFSET 0.0 100.0 0.0
    CHANNELS 6 Xposition Yposition Zposition Zrotation Yrotation Xrotation
    JOINT Spine1
    {
      OFFSET 5.003913 -0.037094 -0.013727
      CHANNELS 3 Zrotation Yrotation Xrotation
      JOINT Spine2
      {
        OFFSET 7.125363 -1e-06 0.0
        CHANNELS 3 Zrotation Yrotation Xrotation
        JOINT Chest
        {
          OFFSET 7.594027 1e-06 0.0
          CHANNELS 3 Zrotation Yrotation Xrotation
          JOINT Neck1
          {
            OFFSET 26.313086 -0.460272 -0.181672
            CHANNELS 3 Zrotation Yrotation Xrotation
            JOINT Neck2
            {
              OFFSET 8.045911 0.0 0.0
              CHANNELS 3 Zrotation Yrotation Xrotation
              JOINT Head
              {
                OFFSET 6.432774 0.0 0.0
                CHANNELS 3 Zrotation Yrotation Xrotation
                JOINT HeadEnd
                {
                  OFFSET 16.169773 0.06451 0.00362
                  CHANNELS 3 Zrotation Yrotation Xrotation
                }
                JOINT Jaw
                {
                  OFFSET 0.108741 3.12938 0.002639
                  CHANNELS 3 Zrotation Yrotation Xrotation
                }
                JOINT LeftEye
                {
                  OFFSET 4.45173 8.166359 3.206392
                  CHANNELS 3 Zrotation Yrotation Xrotation
                }
                JOINT RightEye
                {
                  OFFSET 4.436895 8.135758 -3.222429
                  CHANNELS 3 Zrotation Yrotation Xrotation
                }
              }
            }
          }
          JOINT LeftShoulder
          {
            OFFSET 23.218927 5.195579 1.621656
            CHANNELS 3 Zrotation Yrotation Xrotation
            JOINT LeftArm
            {
              OFFSET 15.902118 2e-06 -2e-06
              CHANNELS 3 Zrotation Yrotation Xrotation
              JOINT LeftForeArm
              {
                OFFSET 28.739307 0.0 -1e-06
                CHANNELS 3 Zrotation Yrotation Xrotation
                JOINT LeftHand
                {
                  OFFSET 27.093981 -4e-06 0.0
                  CHANNELS 3 Zrotation Yrotation Xrotation
                  JOINT LeftHandThumb1
                  {
                    OFFSET 2.276781 3.380274 0.83384
                    CHANNELS 3 Zrotation Yrotation Xrotation
                    JOINT LeftHandThumb2
                    {
                      OFFSET 4.705309 -1e-06 -1e-06
                      CHANNELS 3 Zrotation Yrotation Xrotation
                      JOINT LeftHandThumb3
                      {
                        OFFSET 2.798515 0.0 3e-06
                        CHANNELS 3 Zrotation Yrotation Xrotation
                        JOINT LeftHandThumbEnd
                        {
                          OFFSET 3.180793 4e-06 -4e-06
                          CHANNELS 3 Zrotation Yrotation Xrotation
                        }
                      }
                    }
                  }
                  JOINT LeftHandIndex1
                  {
                    OFFSET 3.247786 2.352677 0.137192
                    CHANNELS 3 Zrotation Yrotation Xrotation
                    JOINT LeftHandIndex2
                    {
                      OFFSET 6.367095 1e-06 0.0
                      CHANNELS 3 Zrotation Yrotation Xrotation
                      JOINT LeftHandIndex3
                      {
                        OFFSET 3.662364 0.0 0.0
                        CHANNELS 3 Zrotation Yrotation Xrotation
                        JOINT LeftHandIndex4
                        {
                          OFFSET 2.329242 4e-06 -4e-06
                          CHANNELS 3 Zrotation Yrotation Xrotation
                          JOINT LeftHandIndexEnd
                          {
                            OFFSET 2.767823 1e-06 0.0
                            CHANNELS 3 Zrotation Yrotation Xrotation
                          }
                        }
                      }
                    }
                  }
                  JOINT LeftHandMiddle1
                  {
                    OFFSET 3.163612 0.945023 -0.406112
                    CHANNELS 3 Zrotation Yrotation Xrotation
                    JOINT LeftHandMiddle2
                    {
                      OFFSET 6.276789 3e-06 0.0
                      CHANNELS 3 Zrotation Yrotation Xrotation
                      JOINT LeftHandMiddle3
                      {
                        OFFSET 4.35652 -1e-06 4e-06
                        CHANNELS 3 Zrotation Yrotation Xrotation
                        JOINT LeftHandMiddle4
                        {
                          OFFSET 2.996877 0.0 8e-06
                          CHANNELS 3 Zrotation Yrotation Xrotation
                          JOINT LeftHandMiddleEnd
                          {
                            OFFSET 2.323256 3e-06 -4e-06
                            CHANNELS 3 Zrotation Yrotation Xrotation
                          }
                        }
                      }
                    }
                  }
                  JOINT LeftHandRing1
                  {
                    OFFSET 2.882606 -0.309162 0.107445
                    CHANNELS 3 Zrotation Yrotation Xrotation
                    JOINT LeftHandRing2
                    {
                      OFFSET 6.033198 0.0 4e-06
                      CHANNELS 3 Zrotation Yrotation Xrotation
                      JOINT LeftHandRing3
                      {
                        OFFSET 4.350578 3e-06 0.0
                        CHANNELS 3 Zrotation Yrotation Xrotation
                        JOINT LeftHandRing4
                        {
                          OFFSET 2.651321 2e-06 -7e-06
                          CHANNELS 3 Zrotation Yrotation Xrotation
                          JOINT LeftHandRingEnd
                          {
                            OFFSET 1.937663 1e-06 -4e-06
                            CHANNELS 3 Zrotation Yrotation Xrotation
                          }
                        }
                      }
                    }
                  }
                  JOINT LeftHandPinky1
                  {
                    OFFSET 2.865315 -1.525436 0.575687
                    CHANNELS 3 Zrotation Yrotation Xrotation
                    JOINT LeftHandPinky2
                    {
                      OFFSET 5.54936 1e-06 -8e-06
                      CHANNELS 3 Zrotation Yrotation Xrotation
                      JOINT LeftHandPinky3
                      {
                        OFFSET 3.070974 0.0 -4e-06
                        CHANNELS 3 Zrotation Yrotation Xrotation
                        JOINT LeftHandPinky4
                        {
                          OFFSET 1.549672 1e-06 0.0
                          CHANNELS 3 Zrotation Yrotation Xrotation
                          JOINT LeftHandPinkyEnd
                          {
                            OFFSET 1.952123 0.0 0.0
                            CHANNELS 3 Zrotation Yrotation Xrotation
                          }
                        }
                      }
                    }
                  }
                }
              }
            }
          }
          JOINT RightShoulder
          {
            OFFSET 23.161716 5.296122 -1.380114
            CHANNELS 3 Zrotation Yrotation Xrotation
            JOINT RightArm
            {
              OFFSET -16.027195 -2e-06 1.1e-05
              CHANNELS 3 Zrotation Yrotation Xrotation
              JOINT RightForeArm
              {
                OFFSET -28.736639 4e-06 2e-06
                CHANNELS 3 Zrotation Yrotation Xrotation
                JOINT RightHand
                {
                  OFFSET -27.133619 6e-06 0.0
                  CHANNELS 3 Zrotation Yrotation Xrotation
                  JOINT RightHandThumb1
                  {
                    OFFSET -2.274328 -3.351035 -0.83067
                    CHANNELS 3 Zrotation Yrotation Xrotation
                    JOINT RightHandThumb2
                    {
                      OFFSET -4.703594 -3e-06 2e-06
                      CHANNELS 3 Zrotation Yrotation Xrotation
                      JOINT RightHandThumb3
                      {
                        OFFSET -2.794935 -4e-06 -3e-06
                        CHANNELS 3 Zrotation Yrotation Xrotation
                        JOINT RightHandThumbEnd
                        {
                          OFFSET -3.183852 4e-06 1e-06
                          CHANNELS 3 Zrotation Yrotation Xrotation
                        }
                      }
                    }
                  }
                  JOINT RightHandIndex1
                  {
                    OFFSET -3.253496 -2.33755 -0.127667
                    CHANNELS 3 Zrotation Yrotation Xrotation
                    JOINT RightHandIndex2
                    {
                      OFFSET -6.344434 0.0 0.0
                      CHANNELS 3 Zrotation Yrotation Xrotation
                      JOINT RightHandIndex3
                      {
                        OFFSET -3.654871 0.0 -8e-06
                        CHANNELS 3 Zrotation Yrotation Xrotation
                        JOINT RightHandIndex4
                        {
                          OFFSET -2.327586 -1e-06 0.0
                          CHANNELS 3 Zrotation Yrotation Xrotation
                          JOINT RightHandIndexEnd
                          {
                            OFFSET -2.770001 3e-06 8e-06
                            CHANNELS 3 Zrotation Yrotation Xrotation
                          }
                        }
                      }
                    }
                  }
                  JOINT RightHandMiddle1
                  {
                    OFFSET -3.168223 -0.944764 0.411762
                    CHANNELS 3 Zrotation Yrotation Xrotation
                    JOINT RightHandMiddle2
                    {
                      OFFSET -6.266691 -1e-06 -4e-06
                      CHANNELS 3 Zrotation Yrotation Xrotation
                      JOINT RightHandMiddle3
                      {
                        OFFSET -4.348901 0.0 0.0
                        CHANNELS 3 Zrotation Yrotation Xrotation
                        JOINT RightHandMiddle4
                        {
                          OFFSET -3.00024 2e-06 -4e-06
                          CHANNELS 3 Zrotation Yrotation Xrotation
                          JOINT RightHandMiddleEnd
                          {
                            OFFSET -2.321477 -4e-06 -4e-06
                            CHANNELS 3 Zrotation Yrotation Xrotation
                          }
                        }
                      }
                    }
                  }
                  JOINT RightHandRing1
                  {
                    OFFSET -2.885654 0.293261 -0.119232
                    CHANNELS 3 Zrotation Yrotation Xrotation
                    JOINT RightHandRing2
                    {
                      OFFSET -6.032835 -1e-06 -4e-06
                      CHANNELS 3 Zrotation Yrotation Xrotation
                      JOINT RightHandRing3
                      {
                        OFFSET -4.33881 0.0 -4e-06
                        CHANNELS 3 Zrotation Yrotation Xrotation
                        JOINT RightHandRing4
                        {
                          OFFSET -2.654903 -4e-06 -4e-06
                          CHANNELS 3 Zrotation Yrotation Xrotation
                          JOINT RightHandRingEnd
                          {
                            OFFSET -1.935122 0.0 4e-06
                            CHANNELS 3 Zrotation Yrotation Xrotation
                          }
                        }
                      }
                    }
                  }
                  JOINT RightHandPinky1
                  {
                    OFFSET -2.866241 1.503904 -0.60527
                    CHANNELS 3 Zrotation Yrotation Xrotation
                    JOINT RightHandPinky2
                    {
                      OFFSET -5.553177 -2e-06 0.0
                      CHANNELS 3 Zrotation Yrotation Xrotation
                      JOINT RightHandPinky3
                      {
                        OFFSET -3.062664 -1e-06 -4e-06
                        CHANNELS 3 Zrotation Yrotation Xrotation
                        JOINT RightHandPinky4
                        {
                          OFFSET -1.546529 2e-06 4e-06
                          CHANNELS 3 Zrotation Yrotation Xrotation
                          JOINT RightHandPinkyEnd
                          {
                            OFFSET -1.952341 0.0 -4e-06
                            CHANNELS 3 Zrotation Yrotation Xrotation
                          }
                        }
                      }
                    }
                  }
                }
              }
            }
          }
        }
      }
    }
    JOINT LeftLeg
    {
      OFFSET -8.443107 2.567604 10.043214
      CHANNELS 3 Zrotation Yrotation Xrotation
      JOINT LeftShin
      {
        OFFSET 43.229198 1e-06 -1e-06
        CHANNELS 3 Zrotation Yrotation Xrotation
        JOINT LeftFoot
        {
          OFFSET 42.298611 1e-06 1e-06
          CHANNELS 3 Zrotation Yrotation Xrotation
          JOINT LeftToeBase
          {
            OFFSET 14.165858 1e-06 0.0
            CHANNELS 3 Zrotation Yrotation Xrotation
            JOINT LeftToeEnd
            {
              OFFSET 6.7141 -0.234461 0.0
              CHANNELS 3 Zrotation Yrotation Xrotation
            }
          }
        }
      }
    }
    JOINT RightLeg
    {
      OFFSET -8.303923 2.592729 -10.047278
      CHANNELS 3 Zrotation Yrotation Xrotation
      JOINT RightShin
      {
        OFFSET -43.369682 0.0 1e-06
        CHANNELS 3 Zrotation Yrotation Xrotation
        JOINT RightFoot
        {
          OFFSET -42.260784 4e-06 2e-06
          CHANNELS 3 Zrotation Yrotation Xrotation
          JOINT RightToeBase
          {
            OFFSET -14.222245 -2e-06 -1e-06
            CHANNELS 3 Zrotation Yrotation Xrotation
            JOINT RightToeEnd
            {
              OFFSET -6.660062 0.232574 -2e-06
              CHANNELS 3 Zrotation Yrotation Xrotation
            }
          }
        }
      }
    }
  }
}
MOTION
Frames: 4
Frame Time: 0.03333333333333333
0.0 0.0 0.0 0.0 -0.0 0.0 -0.588914 99.592247 1.308887 88.445198 -2.822341 90.037132 -3.409695 1.20346 -0.069559 -11.868756 -0.345441 0.146043 10.830855 1.612829 -2.476691 6.55532 2.263251 2.209468 -2.212941 -1.169228 -7.749518 -39.011017 -4.648612 -11.244698 6e-06 0.0 -1e-06 0.028462 0.078151 0.098101 0.179492 0.005865 0.078897 0.223041 0.141149 0.109464 -115.73877 -75.916832 121.553268 -0.552944 3.373841 -12.748195 42.295406 0.351993 -0.268714 -2.64838 -2.054523 -7.23905 17.636631 -26.322729 52.411186 -19.466665 -14.395597 29.410395 -0.0 -8.774822 -2e-06 16.05649 -17.490002 5.916745 -0.609776 -1.795654 -3.889328 -4.807088 -11.046812 -2.937851 3e-06 -20.976021 -2e-06 -5.019969 -25.033562 -4.031882 7e-06 2e-06 -1e-06 -10.634533 -5.686971 -3.565588 10.573274 -17.922951 -3.113902 2e-06 -13.821213 -1e-06 -0.501777 -31.181511 -4.027018 -11.300572 -58.742058 6.987436 -13.982712 -7.1502 -2.875044 13.772727 -8.401491 -3.21824 0.347732 -34.211555 0.771652 -0.963029 -17.733372 2.621018 -1e-06 -1e-06 1e-06 -17.346418 -20.095221 -4.201782 21.757557 -1.638375 3.866428 2e-06 -6.338825 -1e-06 -1.697587 -22.59174 -6.194007 -1e-06 -5e-06 -2e-06 30.419378 -80.271217 157.799377 -7.659887 2.864285 -26.412033 52.539661 -1.264656 0.997062 -14.074365 22.838104 -34.02309 22.182106 -20.375891 49.933308 -16.701809 -16.743528 28.476528 -4e-06 -12.690598 -2e-06 14.793256 -16.872894 3.127552 -0.105918 -1.513855 -4.275881 -5.039042 -5.612872 -2.953555 3e-06 -11.020524 0.0 -6.111297 -15.89533 -3.840469 0.0 -1e-06 -0.0 -10.283367 -5.680288 -4.341838 11.028294 -11.302404 -2.372632 -1.384267 -14.238577 -6.320122 -0.625438 -26.924185 -3.827603 -4.411646 -50.063877 -3.435199 -13.708522 -7.363475 -3.72094 18.141146 -14.052736 -3.242673 7e-06 -18.787268 -4e-06 -0.429713 -8.456038 2.555505 -1e-06 0.0 -1e-06 -15.923532 -20.094482 -5.473583 30.419207 -7.190823 1.735924 1e-06 -8.162929 -1e-06 -1.861903 -22.861469 -6.167938 0.0 -4e-06 -3e-06 -179.768738 -9.082236 -12.408654 10.601484 -0.09856 0.334467 -80.872429 -2.096913 -10.121719 -3.817549 1.339727 2.119426 -0.999998 1e-06 0.0 -4.806305 -4.061295 -5.534391 14.107488 0.040569 -0.050877 -79.868683 -5.865712 -8.737192 -3.113569 0.790303 1.718077 -1.000003 -0.0 -0.0 
0.0 0.0 0.0 0.0 -0.0 0.0 -0.659241 99.572861 1.39483 88.329712 -2.623899 90.045891 -3.440564 1.250582 -0.070792 -11.893389 -0.319831 0.047235 10.871243 1.612218 -2.498961 6.496259 2.357372 2.242648 -2.239227 -1.175847 -7.517713 -39.003937 -4.868272 -10.890748 6e-06 1e-06 -1e-06 0.023091 0.079278 0.105434 0.218171 -0.02377 0.076973 0.263236 0.172013 0.124042 -117.559868 -75.886673 123.624168 -0.21932 1.812841 -10.961492 41.761604 0.369118 -0.093124 -2.77363 -1.889635 -6.135795 17.636635 -26.32272 52.411179 -19.466663 -14.395596 29.410385 1e-06 -8.774822 -3e-06 15.901026 -17.464323 6.037804 -0.609778 -1.795654 -3.889326 -4.807088 -11.046811 -2.93785 6e-06 -20.976017 -2e-06 -5.01997 -25.03356 -4.031882 5e-06 1e-06 -0.0 -10.634535 -5.686972 -3.565587 10.573271 -17.922947 -3.113899 5e-06 -13.821206 1e-06 -0.501775 -31.181501 -4.027016 -11.420857 -58.898266 7.287767 -13.982715 -7.150198 -2.875041 13.772731 -8.401491 -3.218239 0.347735 -34.211555 0.771651 -0.963027 -17.733368 2.621017 -0.0 -1e-06 2e-06 -17.346416 -20.095217 -4.201783 21.757559 -1.638376 3.866429 1e-06 -6.338823 2e-06 -1.69759 -22.591747 -6.194006 -0.0 -4e-06 -2e-06 29.03175 -79.549286 159.620163 -7.267339 2.14044 -24.814659 52.71796 -1.331597 0.964252 -13.74105 22.877605 -33.109737 22.182116 -20.375885 49.9333 -16.701813 -16.743528 28.47653 -6e-06 -12.6906 -3e-06 14.727016 -16.88932 3.131889 -0.105919 -1.513857 -4.275882 -5.039041 -5.612872 -2.953557 5e-06 -11.020524 -3e-06 -6.111297 -15.895334 -3.840472 0.0 -1e-06 0.0 -10.283367 -5.680287 -4.341837 11.028293 -11.302406 -2.372635 -1.384267 -14.238581 -6.32012 -0.625436 -26.924187 -3.827604 -4.230946 -50.115417 -3.562913 -13.708523 -7.363475 -3.720939 18.14115 -14.05274 -3.242676 9e-06 -18.787271 -4e-06 -0.42971 -8.456041 2.555503 -0.0 -1e-06 -1e-06 -15.923534 -20.094482 -5.473583 30.41921 -7.190827 1.735927 4e-06 -8.162926 -2e-06 -1.861898 -22.861467 -6.167944 0.0 -4e-06 -1e-06 -179.527939 -9.269219 -12.490214 10.687989 -0.099709 0.370565 -80.991928 -1.953793 -10.159735 -3.880794 1.401187 2.147038 -0.999998 1e-06 0.0 -4.461149 -3.867971 -5.603353 13.967345 0.002821 -0.043412 -79.907173 -5.729572 -8.707069 -3.108596 0.769379 1.717428 -1.000002 -0.0 0.0 
0.0 0.0 0.0 0.0 -0.0 0.0 -0.705039 99.552979 1.457152 88.236465 -2.456005 89.985863 -3.522806 1.271501 -0.084469 -11.919506 -0.31824 -0.026899 11.047826 1.643979 -2.505742 6.263308 2.388538 2.322167 -2.295406 -1.20975 -7.318686 -38.982109 -5.053016 -10.49037 5e-06 0.0 -2e-06 0.024889 0.085725 0.111976 0.255199 -0.038304 0.085247 0.303921 0.198837 0.12831 -120.03791 -75.639824 126.486732 -0.11423 -0.229534 -9.592386 42.065788 0.167891 -0.039982 -3.3129 -1.408828 -4.738057 17.636627 -26.322733 52.411201 -19.466665 -14.395598 29.410395 1e-06 -8.774822 -3e-06 15.803007 -17.479481 6.130448 -0.609776 -1.795654 -3.889329 -4.807088 -11.046813 -2.937851 4e-06 -20.976019 -2e-06 -5.01997 -25.033562 -4.031883 5e-06 1e-06 0.0 -10.634535 -5.686973 -3.565589 10.573275 -17.922958 -3.113905 2e-06 -13.821213 0.0 -0.501778 -31.181511 -4.027019 -11.52635 -59.111469 7.432294 -13.982712 -7.1502 -2.875042 13.772727 -8.401493 -3.218243 0.347734 -34.211559 0.771651 -0.963029 -17.733372 2.621018 -1e-06 -1e-06 1e-06 -17.34642 -20.095221 -4.201782 21.757559 -1.638377 3.866426 2e-06 -6.338823 2e-06 -1.697591 -22.591751 -6.194006 0.0 -3e-06 -2e-06 27.634422 -78.760094 161.505127 -6.921528 0.761546 -22.543348 53.421741 -1.144933 1.16317 -13.613967 22.742058 -31.983168 22.182116 -20.375893 49.933319 -16.701807 -16.743528 28.476528 -3e-06 -12.690601 -4e-06 14.607861 -16.829956 3.184067 -0.105917 -1.513855 -4.275882 -5.03904 -5.61287 -2.953557 3e-06 -11.020524 -2e-06 -6.111297 -15.895338 -3.840467 0.0 1e-06 -0.0 -10.283371 -5.68029 -4.341839 11.028296 -11.302405 -2.372633 -1.384269 -14.238583 -6.320121 -0.62544 -26.924187 -3.8276 -4.11337 -50.121574 -3.573308 -13.708526 -7.363477 -3.720941 18.14115 -14.052739 -3.242676 8e-06 -18.78727 -1e-06 -0.429713 -8.456043 2.555504 1e-06 -1e-06 0.0 -15.923532 -20.094484 -5.473587 30.419214 -7.190824 1.735927 3e-06 -8.162927 -1e-06 -1.861905 -22.861471 -6.167939 0.0 -3e-06 -1e-06 -179.346497 -9.420692 -12.59151 10.832636 -0.102675 0.381059 -81.124626 -1.847878 -10.149521 -3.931483 1.42614 2.162426 -1.0 1e-06 -0.0 -4.212659 -3.725739 -5.690963 13.900324 -0.03024 -0.027834 -79.947418 -5.548141 -8.645604 -3.116125 0.76671 1.719644 -1.000002 1e-06 -0.0 
0.0 0.0 0.0 0.0 -0.0 0.0 -0.722947 99.537178 1.493345 88.193001 -2.311748 89.846481 -3.587293 1.255358 -0.085805 -11.948655 -0.324116 -0.062311 11.293164 1.682523 -2.488029 5.985042 2.315463 2.422987 -2.341245 -1.244305 -7.144277 -39.075817 -5.128672 -10.082982 6e-06 -0.0 -1e-06 0.029712 0.090165 0.115012 0.281098 -0.04427 0.09381 0.335827 0.212978 0.125641 -122.576233 -75.206207 129.475739 -0.11939 -2.630398 -8.034376 43.042816 -0.09005 -0.099177 -3.99007 -0.584348 -3.220608 17.636641 -26.322729 52.411186 -19.466656 -14.395598 29.410381 0.0 -8.774823 -3e-06 15.72196 -17.491762 6.178867 -0.609776 -1.795653 -3.889327 -4.807091 -11.046807 -2.93785 3e-06 -20.976015 3e-06 -5.019973 -25.03356 -4.031882 5e-06 1e-06 -0.0 -10.634536 -5.686969 -3.565586 10.573275 -17.922951 -3.113901 2e-06 -13.821209 2e-06 -0.501778 -31.181505 -4.027015 -11.609591 -59.25021 7.466605 -13.982716 -7.150195 -2.875041 13.772731 -8.401491 -3.218241 0.347732 -34.211555 0.771658 -0.963029 -17.733366 2.621021 -1e-06 -0.0 1e-06 -17.346424 -20.095213 -4.201779 21.757568 -1.638377 3.866429 2e-06 -6.338823 3e-06 -1.69759 -22.591747 -6.194005 0.0 -4e-06 -3e-06 26.490948 -77.97921 163.102264 -6.67821 -1.172642 -19.583778 54.57497 -0.800747 1.404288 -13.486651 22.476528 -30.442871 22.182112 -20.375896 49.933323 -16.701817 -16.743534 28.476532 -4e-06 -12.690601 0.0 14.444451 -16.789204 3.246356 -0.105918 -1.513856 -4.275882 -5.03904 -5.612873 -2.953556 3e-06 -11.020523 -0.0 -6.111297 -15.895336 -3.84047 2e-06 -3e-06 -0.0 -10.283371 -5.680288 -4.341838 11.028297 -11.302406 -2.372635 -1.384266 -14.238582 -6.320121 -0.625435 -26.924187 -3.827602 -4.091542 -50.090328 -3.510206 -13.708524 -7.363477 -3.720938 18.141153 -14.052743 -3.242676 9e-06 -18.787271 -2e-06 -0.429712 -8.456047 2.555508 -1e-06 0.0 -0.0 -15.923536 -20.094482 -5.473584 30.419214 -7.190827 1.735924 3e-06 -8.162929 -0.0 -1.861901 -22.861475 -6.167946 -1e-06 -2e-06 -0.0 -179.149124 -9.478073 -12.651814 10.884761 -0.108742 0.374201 -81.260727 -1.909024 -10.18354 -3.978665 1.447144 2.170388 -0.999998 1e-06 0.0 -4.058673 -3.660033 -5.688301 13.909306 -0.048653 -0.019189 -79.990662 -5.356225 -8.541886 -3.164171 0.763812 1.717153 -1.000002 -0.0 -0.0 
